<?xml version="1.0" encoding="UTF-8" standalone="no"?>
<!-- Created with Inkscape (http://www.inkscape.org/) -->

<svg
   xmlns:dc="http://purl.org/dc/elements/1.1/"
   xmlns:cc="http://creativecommons.org/ns#"
   xmlns:rdf="http://www.w3.org/1999/02/22-rdf-syntax-ns#"
   xmlns:svg="http://www.w3.org/2000/svg"
   xmlns="http://www.w3.org/2000/svg"
   xmlns:sodipodi="http://sodipodi.sourceforge.net/DTD/sodipodi-0.dtd"
   xmlns:inkscape="http://www.inkscape.org/namespaces/inkscape"
   width="210mm"
   height="297mm"
   viewBox="0 0 744.09448819 1052.3622047"
   id="svg2"
   version="1.1"
   inkscape:version="0.91 r13725"
   sodipodi:docname="aperature_science_logo.svg">
  <defs
     id="defs4" />
  <sodipodi:namedview
     id="base"
     pagecolor="#ffffff"
     bordercolor="#666666"
     borderopacity="1.0"
     inkscape:pageopacity="0.0"
     inkscape:pageshadow="2"
     inkscape:zoom="0.16915191"
     inkscape:cx="-45.158449"
     inkscape:cy="216.16594"
     inkscape:document-units="px"
     inkscape:current-layer="layer1"
     showgrid="false"
     inkscape:window-width="1920"
     inkscape:window-height="1057"
     inkscape:window-x="-8"
     inkscape:window-y="-8"
     inkscape:window-maximized="1" />
  <metadata
     id="metadata7">
    <rdf:RDF>
      <cc:Work
         rdf:about="">
        <dc:format>image/svg+xml</dc:format>
        <dc:type
           rdf:resource="http://purl.org/dc/dcmitype/StillImage" />
        <dc:title></dc:title>
      </cc:Work>
    </rdf:RDF>
  </metadata>
  <g
     inkscape:label="Layer 1"
     inkscape:groupmode="layer"
     id="layer1">
    <path
       style="opacity:1;fill:#b48631;fill-opacity:1;stroke:none;stroke-width:3;stroke-linecap:round;stroke-linejoin:round;stroke-miterlimit:4;stroke-dasharray:none;stroke-dashoffset:0;stroke-opacity:1"
       d="m -1023.8085,-70.802089 c 62.74967,-78.239171 119.09123,-131.016341 191.23233,-179.134171 71.95629,-47.99456 150.16183,-83.79903 231.34594,-105.91603 l 28.08803,-7.65203 153.13683,153.13683 153.13683,153.136829 -383.91226,0 -383.9123,0 10.8846,-13.571428 z"
       id="path4160"
       inkscape:connector-curvature="0"
       inkscape:export-xdpi="28.296513"
       inkscape:export-ydpi="28.296513" />
    <path
       style="opacity:1;fill:#b48631;fill-opacity:1;stroke:none;stroke-width:3;stroke-linecap:round;stroke-linejoin:round;stroke-miterlimit:4;stroke-dasharray:none;stroke-dashoffset:0;stroke-opacity:1"
       d="m -242.25364,-104.05063 c -213.33863,-213.34786 -268.55107,-270.02006 -264.28572,-271.27317 30.56863,-8.98066 175.81955,-9.39678 232.53462,-0.66616 43.19637,6.64956 115.76805,25.14843 157.14285,40.05644 34.164747,12.31011 125.7882898,56.12055 139.303976,66.60917 l 6.4468,5.00294 -0.732515,214.979949 -0.732543,214.979971 -269.677468,-269.68914 z"
       id="path4162"
       inkscape:connector-curvature="0"
       inkscape:export-xdpi="28.296513"
       inkscape:export-ydpi="28.296513" />
    <path
       style="opacity:1;fill:#b48631;fill-opacity:1;stroke:none;stroke-width:3;stroke-linecap:round;stroke-linejoin:round;stroke-miterlimit:4;stroke-dasharray:none;stroke-dashoffset:0;stroke-opacity:1"
       d="m 80.280971,153.47363 c 0,-210.173082 0.758105,-382.13286 1.684676,-382.13286 2.508303,0 42.274443,32.45766 68.011503,55.5119 60.95857,54.60429 130.63332,146.268175 169.55006,223.059527 24.6594,48.658485 51.71622,120.365453 61.9185,164.098853 l 3.87218,16.59846 L 232.79943,383.108 80.280971,535.60645 l 0,-382.13282 z"
       id="path4164"
       inkscape:connector-curvature="0"
       inkscape:export-xdpi="28.296513"
       inkscape:export-ydpi="28.296513" />
    <path
       style="opacity:1;fill:#b48631;fill-opacity:1;stroke:none;stroke-width:3;stroke-linecap:round;stroke-linejoin:round;stroke-miterlimit:4;stroke-dasharray:none;stroke-dashoffset:0;stroke-opacity:1"
       d="m 125.98826,561.34776 c 246.054,-246.06433 270.14888,-269.36774 271.86848,-262.93796 4.84243,18.10654 8.84152,94.86054 7.29397,139.99268 -2.15917,62.96937 -8.023,106.14716 -22.305,164.2406 -17.74225,72.16852 -44.49645,140.07515 -79.12817,200.84055 l -15.87645,27.85714 -215.917253,0 -215.917247,0 269.98167,-269.99301 z"
       id="path4166"
       inkscape:connector-curvature="0"
       inkscape:export-xdpi="28.296513"
       inkscape:export-ydpi="28.296513" />
    <path
       style="opacity:1;fill:#b48631;fill-opacity:1;stroke:none;stroke-width:3;stroke-linecap:round;stroke-linejoin:round;stroke-miterlimit:4;stroke-dasharray:none;stroke-dashoffset:0;stroke-opacity:1"
       d="m -359.74255,1035.603 -152.81359,-152.83366 382.3274,0 382.3274,0 -6.60335,9.28571 c -22.30588,31.36683 -81.74805,94.54171 -120.92862,128.52245 -76.878519,66.6755 -189.408319,127.0472 -291.42858,156.3499 -17.28571,4.9649 -33.37222,9.5855 -35.74782,10.2681 -2.77006,0.796 -59.12903,-53.5759 -157.13284,-151.5925 z"
       id="path4168"
       inkscape:connector-curvature="0"
       inkscape:export-xdpi="28.296513"
       inkscape:export-ydpi="28.296513" />
    <path
       style="opacity:1;fill:#b48631;fill-opacity:1;stroke:none;stroke-width:3;stroke-linecap:round;stroke-linejoin:round;stroke-miterlimit:4;stroke-dasharray:none;stroke-dashoffset:0;stroke-opacity:1"
       d="m -481.1476,1203.7809 c -109.28085,-13.0202 -219.57435,-49.4487 -307.85714,-101.681 l -19.28572,-11.4104 0,-216.09725 0,-216.09729 269.88379,269.87245 c 148.43607,148.42989 269.43738,270.31889 268.89181,270.86439 -0.54557,0.5456 -17.529,2.8376 -37.74094,5.0934 -45.7754,5.1087 -128.62126,4.8494 -173.8918,-0.5443 z"
       id="path4170"
       inkscape:connector-curvature="0"
       inkscape:export-xdpi="28.296513"
       inkscape:export-ydpi="28.296513" />
    <path
       style="opacity:1;fill:#b48631;fill-opacity:1;stroke:none;stroke-width:3;stroke-linecap:round;stroke-linejoin:round;stroke-miterlimit:4;stroke-dasharray:none;stroke-dashoffset:0;stroke-opacity:1"
       d="m -886.62357,1035.4843 c -76.00678,-62.43779 -132.71803,-126.3049 -180.88913,-203.71379 -37.2782,-59.90454 -72.9878,-141.40686 -90.8223,-207.2896 l -7.6577,-28.2884 153.1368,-153.13684 153.13687,-153.13683 0,382.13953 c 0,210.17674 -0.96428,382.10963 -2.14286,382.07313 -1.17857,-0.036 -12.32134,-8.4277 -24.76168,-18.6472 z"
       id="path4172"
       inkscape:connector-curvature="0"
       inkscape:export-xdpi="28.296513"
       inkscape:export-ydpi="28.296513" />
    <path
       style="opacity:1;fill:#b48631;fill-opacity:1;stroke:none;stroke-width:3;stroke-linecap:round;stroke-linejoin:round;stroke-miterlimit:4;stroke-dasharray:none;stroke-dashoffset:0;stroke-opacity:1"
       d="m -1178.2479,527.76933 c -4.1694,-12.3408 -7.9695,-68.96917 -7.9088,-117.85714 0.1214,-97.86729 15.3182,-182.32296 49.8687,-277.14286 11.9431,-32.776525 44.6717,-101.602079 59.4413,-124.9999963 l 8.5667,-13.571429 214.98911,0 214.98905,0 -268.56003,268.5714253 c -147.70803,147.71429 -268.92443,268.57143 -269.36973,268.57143 -0.4453,0 -1.3526,-1.60714 -2.0163,-3.57143 z"
       id="path4158"
       inkscape:connector-curvature="0"
       inkscape:export-xdpi="28.296513"
       inkscape:export-ydpi="28.296513" />
  </g>
</svg>
